<svg width="46" height="46" viewBox="0 0 46 46" fill="none" xmlns="http://www.w3.org/2000/svg">
<path fill-rule="evenodd" clip-rule="evenodd" d="M20.0126 34.1297V17.8293H24.8426V20.0245C24.8426 20.0245 26.2953 17.332 29.7453 17.332C33.1953 17.332 35.6647 19.4424 35.6647 23.8085V34.1297H30.6532V25.5735C30.6532 23.2264 29.7637 21.9165 27.911 21.9165C25.8958 21.9165 24.8426 23.2813 24.8426 25.5735V34.1297H20.0126ZM11.7568 34.1295H16.7925V17.8291H11.7568V34.1295ZM14.2506 15.6946C12.6062 15.6946 11.2727 14.3477 11.2727 12.6868C11.2727 11.0258 12.6062 9.67896 14.2506 9.67896C15.8957 9.67896 17.2292 11.0258 17.2292 12.6868C17.2292 14.3477 15.8957 15.6946 14.2506 15.6946ZM0 0V46H22.9121H45.8726V0H0Z" fill="#2575BC"/>
</svg>
