<svg width="32" height="32" viewBox="0 0 32 32" fill="none" xmlns="http://www.w3.org/2000/svg">
<path fill-rule="evenodd" clip-rule="evenodd" d="M13.46 24.45C7.17 24.45 2.071 19.44 2.071 13.25C2.071 7.06 7.17 2.04 13.46 2.04C19.75 2.04 24.85 7.06 24.85 13.25C24.85 19.44 19.75 24.45 13.46 24.45ZM31.688 30.25L23.429 22.12C25.591 19.77 26.92 16.67 26.92 13.25C26.92 5.93 20.894 0 13.46 0C6.026 0 0 5.93 0 13.25C0 20.56 6.026 26.49 13.46 26.49C16.672 26.49 19.618 25.38 21.932 23.53L30.224 31.69C30.629 32.09 31.284 32.09 31.688 31.69C32.093 31.3 32.093 30.65 31.688 30.25Z" fill="#131314"/>
</svg>
