<svg width="150" height="150" viewBox="0 0 150 150" fill="none" xmlns="http://www.w3.org/2000/svg">
<path fill-rule="evenodd" clip-rule="evenodd" d="M104.97 48.8919C104.97 48.8919 71.8853 106.548 71.3135 107.064C69.4244 108.845 66.4572 108.751 64.69 106.876L43.2588 87.095C41.4869 85.22 41.5853 82.22 43.4744 80.4856C45.3635 78.7044 48.3307 78.7981 50.1025 80.6731L66.8744 96.1419L96.851 44.2044C98.1447 42.0012 101.009 41.2044 103.254 42.5169C105.495 43.7825 106.263 46.6887 104.97 48.8919ZM75 0C33.5812 0 0 33.5625 0 75C0 116.438 33.5812 150 75 150C116.419 150 150 116.438 150 75C150 33.5625 116.419 0 75 0Z" fill="#10B982"/>
</svg>
