<svg width="150" height="172" viewBox="0 0 150 172" fill="none" xmlns="http://www.w3.org/2000/svg">
<path d="M64.2857 0C52.5 0 42.8571 9.64286 42.8571 21.4286H21.4286C9.64286 21.4286 0 31.0714 0 42.8571H150C150 31.0714 140.357 21.4286 128.571 21.4286H107.143C107.143 9.64286 97.5 0 85.7143 0H64.2857ZM21.4286 64.2857V167.357C21.4286 169.714 23.1429 171.429 25.5 171.429H124.714C127.071 171.429 128.786 169.714 128.786 167.357V64.2857H107.357V139.286C107.357 145.286 102.643 150 96.6429 150C90.6429 150 85.9286 145.286 85.9286 139.286V64.2857H64.5V139.286C64.5 145.286 59.7857 150 53.7857 150C47.7857 150 43.0714 145.286 43.0714 139.286V64.2857H21.6429H21.4286Z" fill="#C9281B"/>
</svg>
