<svg width="54" height="47" viewBox="0 0 54 47" fill="none" xmlns="http://www.w3.org/2000/svg">
<rect width="54" height="47" rx="8" fill="#C9281B"/>
<path d="M24.7143 10C22.75 10 21.1429 11.6071 21.1429 13.5714H17.5714C15.6071 13.5714 14 15.1786 14 17.1429H39C39 15.1786 37.3929 13.5714 35.4286 13.5714H31.8571C31.8571 11.6071 30.25 10 28.2857 10H24.7143ZM17.5714 20.7143V37.8929C17.5714 38.2857 17.8571 38.5714 18.25 38.5714H34.7857C35.1786 38.5714 35.4643 38.2857 35.4643 37.8929V20.7143H31.8929V33.2143C31.8929 34.2143 31.1071 35 30.1071 35C29.1071 35 28.3214 34.2143 28.3214 33.2143V20.7143H24.75V33.2143C24.75 34.2143 23.9643 35 22.9643 35C21.9643 35 21.1786 34.2143 21.1786 33.2143V20.7143H17.6071H17.5714Z" fill="white"/>
</svg>
