<svg width="45" height="45" viewBox="0 0 45 45" fill="none" xmlns="http://www.w3.org/2000/svg">
<path d="M22.1437 0C9.96467 0 0 9.96467 0 22.1437C0 34.3228 9.96467 44.2874 22.1437 44.2874C34.3228 44.2874 44.2874 34.3228 44.2874 22.1437C44.2874 9.96467 34.3228 0 22.1437 0ZM22.1437 5.53593C31.3334 5.53593 38.7515 12.9541 38.7515 22.1437C38.7515 31.3334 31.3334 38.7515 22.1437 38.7515C12.9541 38.7515 5.53593 31.3334 5.53593 22.1437C5.53593 12.9541 12.9541 5.53593 22.1437 5.53593ZM19.3758 11.0719V23.3616L20.2615 24.0813L23.0295 26.8493L24.9117 28.9529L28.8976 24.967L26.7939 23.0848L24.9117 21.2026V11.1826H19.3758V11.0719Z" fill="#7F9AE8"/>
</svg>
