<svg width="42" height="36" viewBox="0 0 42 36" fill="none" xmlns="http://www.w3.org/2000/svg">
<path d="M2.57143 0C1.13143 0 0 1.13143 0 2.57143C0 4.01143 1.13143 5.14286 2.57143 5.14286C4.01143 5.14286 5.14286 4.01143 5.14286 2.57143C5.14286 1.13143 4.01143 0 2.57143 0ZM10.2857 0V5.14286H41.1429V0H10.2857ZM2.57143 10.2857C1.13143 10.2857 0 11.4171 0 12.8571C0 14.2971 1.13143 15.4286 2.57143 15.4286C4.01143 15.4286 5.14286 14.2971 5.14286 12.8571C5.14286 11.4171 4.01143 10.2857 2.57143 10.2857ZM10.2857 10.2857V15.4286H41.1429V10.2857H10.2857ZM2.57143 20.5714C1.13143 20.5714 0 21.7029 0 23.1429C0 24.5829 1.13143 25.7143 2.57143 25.7143C4.01143 25.7143 5.14286 24.5829 5.14286 23.1429C5.14286 21.7029 4.01143 20.5714 2.57143 20.5714ZM10.2857 20.5714V25.7143H41.1429V20.5714H10.2857ZM2.57143 30.8571C1.13143 30.8571 0 31.9886 0 33.4286C0 34.8686 1.13143 36 2.57143 36C4.01143 36 5.14286 34.8686 5.14286 33.4286C5.14286 31.9886 4.01143 30.8571 2.57143 30.8571ZM10.2857 30.8571V36H41.1429V30.8571H10.2857Z" fill="#5A5C69"/>
</svg>
