<svg width="70" height="70" viewBox="0 0 70 70" fill="none" xmlns="http://www.w3.org/2000/svg">
<circle cx="35" cy="35" r="35" fill="#0D98C7"/>
<path d="M35.5 14C29.8625 14 25.25 19.74 25.25 26.8125C25.25 33.885 29.8625 39.625 35.5 39.625C41.1375 39.625 45.75 33.885 45.75 26.8125C45.75 19.74 41.1375 14 35.5 14ZM24.7887 39.625C19.3563 39.8813 15 44.34 15 49.875V55H56V49.875C56 44.34 51.695 39.8813 46.2113 39.625C43.4438 42.7512 39.6513 44.75 35.5 44.75C31.3487 44.75 27.5562 42.7512 24.7887 39.625Z" fill="white"/>
</svg>
